<svg width="12" height="12" viewBox="0 0 12 12" fill="none" xmlns="http://www.w3.org/2000/svg">
<path d="M6.99607 1.06147C7.0236 0.841216 6.90264 0.629182 6.69903 0.540797C6.49542 0.452413 6.25792 0.508839 6.11582 0.679356L1.65109 6.03703C1.57393 6.12959 1.49578 6.22333 1.43888 6.30571C1.38507 6.38363 1.28681 6.53681 1.28378 6.73814C1.2803 6.96863 1.38301 7.18791 1.56229 7.33279C1.7189 7.45934 1.89949 7.48193 1.99379 7.49047C2.0935 7.4995 2.21554 7.49947 2.33604 7.49945L5.43354 7.49945L5.00379 10.9374C4.97626 11.1577 5.09723 11.3697 5.30083 11.4581C5.50444 11.5465 5.74194 11.4901 5.88404 11.3195L10.3488 5.96187C10.4259 5.86931 10.5041 5.77557 10.561 5.69318C10.6148 5.61527 10.713 5.46208 10.7161 5.26076C10.7196 5.03027 10.6169 4.81099 10.4376 4.66611C10.281 4.53955 10.1004 4.51697 10.0061 4.50843C9.90636 4.4994 9.78431 4.49942 9.66381 4.49945L6.56632 4.49945L6.99607 1.06147Z" fill="#4E75FF"/>
</svg>
